<?xml version="1.0" encoding="UTF-8" standalone="no"?>
<!DOCTYPE svg PUBLIC "-//W3C//DTD SVG 1.1//EN" "http://www.w3.org/Graphics/SVG/1.1/DTD/svg11.dtd">
<svg xmlns="http://www.w3.org/2000/svg" version="1.1" viewBox="0.00 0.00 1320.00 1320.00">
<g stroke-width="2.00" fill="none" stroke-linecap="butt">
<path stroke="#966495" vector-effect="non-scaling-stroke" d="
  M 327.25 669.83
  Q 261.01 631.39 194.41 592.74
  Q 177.99 583.21 177.09 582.74
  C 155.47 571.48 128.68 566.44 104.62 572.37
  Q 95.77 574.55 86.78 578.06"
/>
<path stroke="#85ad2e" vector-effect="non-scaling-stroke" d="
  M 1216.83 761.30
  Q 1216.65 760.92 1216.35 760.79
  Q 1216.11 760.69 1215.73 760.86
  Q 1185.76 773.91 1154.49 767.32
  C 1141.64 764.62 1130.39 759.05 1118.69 752.31
  Q 1047.54 711.31 976.43 670.21
  Q 975.97 669.94 975.53 669.95
  Q 974.72 669.96 974.62 670.38"
/>
</g>
<path fill="#ea4335" d="
  M 327.25 669.83
  Q 261.01 631.39 194.41 592.74
  Q 177.99 583.21 177.09 582.74
  C 155.47 571.48 128.68 566.44 104.62 572.37
  Q 95.77 574.55 86.78 578.06
  Q 95.91 572.47 104.40 567.58
  Q 264.67 475.31 424.81 382.82
  C 438.86 374.70 453.55 369.53 469.67 368.31
  C 522.75 364.31 570.47 402.70 576.47 456.19
  C 580.38 490.97 565.95 525.43 538.18 546.93
  Q 532.99 550.96 517.92 559.66
  Q 422.83 614.59 327.25 669.83
  Z"
/>
<path fill="#0f9d58" d="
  M 1216.83 761.30
  Q 1216.65 760.92 1216.35 760.79
  Q 1216.11 760.69 1215.73 760.86
  Q 1185.76 773.91 1154.49 767.32
  C 1141.64 764.62 1130.39 759.05 1118.69 752.31
  Q 1047.54 711.31 976.43 670.21
  Q 975.97 669.94 975.53 669.95
  Q 974.72 669.96 974.62 670.38
  Q 974.36 669.08 973.44 668.55
  Q 874.31 611.37 775.28 553.99
  Q 743.65 535.67 731.39 501.08
  C 702.18 418.73 785.03 341.99 865.32 376.44
  Q 872.92 379.70 887.07 387.88
  Q 1049.27 481.60 1211.43 575.38
  Q 1227.66 584.76 1228.72 585.44
  C 1288.37 623.79 1290.81 709.61 1232.83 751.57
  Q 1227.78 755.23 1216.83 761.30
  Z"
/>
<path fill="#4285f4" d="
  M 327.25 669.83
  Q 328.10 670.37 328.58 670.65
  Q 421.87 724.53 515.10 778.46
  Q 529.00 786.50 532.28 788.70
  C 606.74 838.74 583.69 954.02 495.00 970.24
  Q 461.81 976.32 430.93 960.34
  Q 426.78 958.19 415.07 951.43
  Q 249.26 855.64 83.49 759.77
  C 74.73 754.70 65.95 749.01 58.81 742.25
  C 10.79 696.82 20.07 619.74 74.95 585.20
  Q 83.52 579.80 86.78 578.06
  Q 95.77 574.55 104.62 572.37
  C 128.68 566.44 155.47 571.48 177.09 582.74
  Q 177.99 583.21 194.41 592.74
  Q 261.01 631.39 327.25 669.83
  Z"
/>
<path fill="#fbbc04" d="
  M 1216.83 761.30
  C 1213.89 763.39 1209.78 765.32 1207.47 766.65
  Q 1040.98 862.83 874.43 958.92
  C 841.25 978.06 799.54 975.50 768.23 953.76
  C 710.32 913.56 711.68 825.93 771.57 788.08
  Q 779.74 782.91 793.32 775.08
  Q 884.01 722.81 974.62 670.38
  Q 974.72 669.96 975.53 669.95
  Q 975.97 669.94 976.43 670.21
  Q 1047.54 711.31 1118.69 752.31
  C 1130.39 759.05 1141.64 764.62 1154.49 767.32
  Q 1185.76 773.91 1215.73 760.86
  Q 1216.11 760.69 1216.35 760.79
  Q 1216.65 760.92 1216.83 761.30
  Z"
/>
</svg>
