<?xml version="1.0" encoding="UTF-8" standalone="no"?>
<!DOCTYPE svg PUBLIC "-//W3C//DTD SVG 1.1//EN" "http://www.w3.org/Graphics/SVG/1.1/DTD/svg11.dtd">
<svg xmlns="http://www.w3.org/2000/svg" version="1.1" viewBox="0.00 0.00 1000.00 484.00">
<g stroke-width="2.00" fill="none" stroke-linecap="butt">
<path stroke="#966495" vector-effect="non-scaling-stroke" d="
  M 251.48 241.89
  Q 250.08 241.12 248.22 240.05
  Q 193.10 208.15 138.04 176.12
  C 118.25 164.61 89.61 160.29 68.21 170.86
  Q 67.75 171.08 67.25 171.01
  L 66.47 170.91"
/>
<path stroke="#85ad2e" vector-effect="non-scaling-stroke" d="
  M 937.53 312.25
  Q 937.35 311.72 936.74 312.00
  C 918.32 320.50 897.52 320.88 878.98 314.16
  Q 872.76 311.91 861.14 305.21
  Q 806.32 273.62 751.55 241.96
  Q 751.34 241.58 751.06 242.07"
/>
</g>
<path fill="#ea4335" d="
  M 251.48 241.89
  Q 250.08 241.12 248.22 240.05
  Q 193.10 208.15 138.04 176.12
  C 118.25 164.61 89.61 160.29 68.21 170.86
  Q 67.75 171.08 67.25 171.01
  L 66.47 170.91
  Q 197.42 95.23 328.44 19.68
  C 371.80 -5.32 426.42 16.31 440.99 63.76
  C 449.85 92.63 440.39 125.19 417.22 144.77
  Q 412.03 149.17 400.59 155.78
  Q 326.33 198.71 251.48 241.89
  Z"
/>
<path fill="#0f9d58" d="
  M 937.53 312.25
  Q 937.35 311.72 936.74 312.00
  C 918.32 320.50 897.52 320.88 878.98 314.16
  Q 872.76 311.91 861.14 305.21
  Q 806.32 273.62 751.55 241.96
  Q 751.34 241.58 751.06 242.07
  Q 751.02 241.90 750.99 241.79
  Q 750.94 241.59 750.76 241.49
  Q 676.69 198.80 602.70 155.98
  Q 591.09 149.26 586.02 145.01
  C 567.97 129.86 557.70 106.63 558.68 82.93
  C 560.92 28.55 616.76 -5.59 666.24 15.63
  Q 671.35 17.82 683.86 25.04
  Q 807.61 96.50 931.36 167.96
  Q 946.67 176.80 948.59 178.11
  C 990.69 206.76 993.89 267.59 955.20 300.70
  Q 948.44 306.48 937.53 312.25
  Z"
/>
<path fill="#4285f4" d="
  M 251.48 241.89
  Q 325.99 284.87 400.11 327.73
  Q 411.84 334.51 416.81 338.66
  C 439.09 357.27 448.92 387.58 442.14 415.63
  C 430.57 463.55 377.71 488.39 333.41 466.83
  Q 330.33 465.33 319.64 459.15
  Q 192.30 385.57 64.94 312.00
  Q 53.41 305.34 48.25 301.03
  C 20.83 278.12 12.66 239.47 28.79 207.28
  C 37.38 190.14 49.86 179.91 66.47 170.91
  L 67.25 171.01
  Q 67.75 171.08 68.21 170.86
  C 89.61 160.29 118.25 164.61 138.04 176.12
  Q 193.10 208.15 248.22 240.05
  Q 250.08 241.12 251.48 241.89
  Z"
/>
<path fill="#fbbc04" d="
  M 937.53 312.25
  Q 805.20 388.72 672.82 465.07
  Q 658.22 473.49 640.49 474.52
  C 596.92 477.06 559.70 443.30 558.65 399.77
  C 558.06 375.30 568.87 352.40 587.90 337.30
  Q 592.77 333.44 604.73 326.55
  Q 677.92 284.36 751.06 242.07
  Q 751.34 241.58 751.55 241.96
  Q 806.32 273.62 861.14 305.21
  Q 872.76 311.91 878.98 314.16
  C 897.52 320.88 918.32 320.50 936.74 312.00
  Q 937.35 311.72 937.53 312.25
  Z"
/>
</svg>
