<svg width="522" height="71" viewBox="0 0 522 71" fill="none" xmlns="http://www.w3.org/2000/svg">
<path d="M6.5 19L14.5 23L26.8056 14.9821C29.3639 13.5053 30.2392 10.2336 28.7624 7.67531C27.2856 5.11699 24.014 4.23979 21.4557 5.71849L2 17C2.84442 17.1292 5.7539 18.5701 6.5 19Z" fill="#EA4235"/>
<path d="M26.8036 27.4074L8.02203 16.5629C7.17954 16.0771 6.25993 15.8457 5.35381 15.8457C3.50496 15.8457 1.70816 16.8058 0.717215 18.5217C-0.759557 21.08 0.117643 24.3516 2.67404 25.8284L21.4556 36.6729C22.2981 37.1587 23.2177 37.39 24.1239 37.39C25.9727 37.39 27.7695 36.4299 28.7605 34.7141C30.2392 32.1558 29.362 28.8841 26.8036 27.4074Z" fill="#4286F5"/>
<path d="M59.5 25L52 20.5L40.1293 27.4093C37.571 28.8861 36.6938 32.1577 38.1725 34.716C39.1634 36.4319 40.9602 37.392 42.8091 37.392C43.7171 37.392 44.6367 37.1606 45.4773 36.6748L64 26C63.1575 25.8689 60.2461 25.4299 59.5 25Z" fill="#FABB04"/>
<path d="M64.2589 16.5629L45.4773 5.71846C44.6348 5.23263 43.7152 5.00128 42.8072 5.00128C40.9583 5.00128 39.1615 5.95945 38.1706 7.67721C36.6938 10.2356 37.571 13.5053 40.1274 14.984L58.909 25.8284C59.7515 26.3143 60.6711 26.5456 61.5772 26.5456C63.4261 26.5456 65.2229 25.5874 66.2138 23.8697C67.6944 21.3113 66.8172 18.0416 64.2589 16.5629Z" fill="#109D58"/>
<path d="M83.76 49.248H86.466L91.482 62.162H91.57L96.586 49.248H99.292V65H97.444V54.99L97.532 51.998H97.444L92.296 65H90.756L85.608 51.998H85.52L85.608 54.99V65H83.76V49.248ZM105.706 65.352C104.885 65.352 104.152 65.1907 103.506 64.868C102.861 64.5453 102.362 64.1053 102.01 63.548C101.658 62.976 101.482 62.3307 101.482 61.612C101.482 60.424 101.93 59.5 102.824 58.84C103.719 58.1653 104.848 57.828 106.212 57.828C106.887 57.828 107.51 57.9013 108.082 58.048C108.669 58.1947 109.116 58.3633 109.424 58.554V57.872C109.424 57.036 109.131 56.3687 108.544 55.87C107.958 55.3567 107.217 55.1 106.322 55.1C105.692 55.1 105.112 55.2393 104.584 55.518C104.056 55.782 103.638 56.156 103.33 56.64L101.922 55.584C102.362 54.9093 102.964 54.3813 103.726 54C104.504 53.6187 105.362 53.428 106.3 53.428C107.826 53.428 109.021 53.8313 109.886 54.638C110.766 55.43 111.206 56.5153 111.206 57.894V65H109.424V63.394H109.336C109.014 63.9367 108.53 64.3987 107.884 64.78C107.239 65.1613 106.513 65.352 105.706 65.352ZM105.882 63.702C106.513 63.702 107.1 63.5407 107.642 63.218C108.185 62.8953 108.618 62.4627 108.94 61.92C109.263 61.3773 109.424 60.7833 109.424 60.138C109.072 59.9033 108.64 59.7127 108.126 59.566C107.613 59.4193 107.07 59.346 106.498 59.346C105.472 59.346 104.694 59.5587 104.166 59.984C103.653 60.4093 103.396 60.9593 103.396 61.634C103.396 62.25 103.631 62.7487 104.1 63.13C104.57 63.5113 105.164 63.702 105.882 63.702ZM113.808 53.78H115.59V55.584H115.678C115.898 54.968 116.323 54.462 116.954 54.066C117.585 53.6553 118.245 53.45 118.934 53.45C119.447 53.45 119.887 53.5233 120.254 53.67V55.694C119.785 55.4593 119.257 55.342 118.67 55.342C118.127 55.342 117.629 55.496 117.174 55.804C116.719 56.112 116.353 56.53 116.074 57.058C115.81 57.5713 115.678 58.1287 115.678 58.73V65H113.808V53.78ZM123.158 51.712C122.791 51.712 122.476 51.58 122.212 51.316C121.948 51.052 121.816 50.7367 121.816 50.37C121.816 50.0033 121.948 49.6953 122.212 49.446C122.476 49.182 122.791 49.05 123.158 49.05C123.525 49.05 123.84 49.182 124.104 49.446C124.368 49.6953 124.5 50.0033 124.5 50.37C124.5 50.7367 124.368 51.052 124.104 51.316C123.855 51.58 123.539 51.712 123.158 51.712ZM122.234 53.78H124.082V65H122.234V53.78ZM130.499 65.352C129.678 65.352 128.945 65.1907 128.299 64.868C127.654 64.5453 127.155 64.1053 126.803 63.548C126.451 62.976 126.275 62.3307 126.275 61.612C126.275 60.424 126.723 59.5 127.617 58.84C128.512 58.1653 129.641 57.828 131.005 57.828C131.68 57.828 132.303 57.9013 132.875 58.048C133.462 58.1947 133.909 58.3633 134.217 58.554V57.872C134.217 57.036 133.924 56.3687 133.337 55.87C132.751 55.3567 132.01 55.1 131.115 55.1C130.485 55.1 129.905 55.2393 129.377 55.518C128.849 55.782 128.431 56.156 128.123 56.64L126.715 55.584C127.155 54.9093 127.757 54.3813 128.519 54C129.297 53.6187 130.155 53.428 131.093 53.428C132.619 53.428 133.814 53.8313 134.679 54.638C135.559 55.43 135.999 56.5153 135.999 57.894V65H134.217V63.394H134.129C133.807 63.9367 133.323 64.3987 132.677 64.78C132.032 65.1613 131.306 65.352 130.499 65.352ZM130.675 63.702C131.306 63.702 131.893 63.5407 132.435 63.218C132.978 62.8953 133.411 62.4627 133.733 61.92C134.056 61.3773 134.217 60.7833 134.217 60.138C133.865 59.9033 133.433 59.7127 132.919 59.566C132.406 59.4193 131.863 59.346 131.291 59.346C130.265 59.346 129.487 59.5587 128.959 59.984C128.446 60.4093 128.189 60.9593 128.189 61.634C128.189 62.25 128.424 62.7487 128.893 63.13C129.363 63.5113 129.957 63.702 130.675 63.702ZM138.601 53.78H140.383V55.43H140.471C140.779 54.8727 141.27 54.4033 141.945 54.022C142.62 53.626 143.338 53.428 144.101 53.428C145.45 53.428 146.477 53.824 147.181 54.616C147.9 55.3933 148.259 56.4567 148.259 57.806V65H146.389V58.092C146.389 57.0507 146.14 56.2953 145.641 55.826C145.142 55.3567 144.46 55.122 143.595 55.122C142.994 55.122 142.451 55.2907 141.967 55.628C141.498 55.9653 141.131 56.4127 140.867 56.97C140.603 57.5127 140.471 58.0847 140.471 58.686V65H138.601V53.78ZM156.42 49.248H165.528V51.03H158.268V56.244H164.824V58.004H158.268V63.218H165.528V65H156.42V49.248ZM167.949 53.78H169.731V55.43H169.819C170.127 54.8727 170.618 54.4033 171.293 54.022C171.967 53.626 172.686 53.428 173.449 53.428C174.798 53.428 175.825 53.824 176.529 54.616C177.247 55.3933 177.607 56.4567 177.607 57.806V65H175.737V58.092C175.737 57.0507 175.487 56.2953 174.989 55.826C174.49 55.3567 173.808 55.122 172.943 55.122C172.341 55.122 171.799 55.2907 171.315 55.628C170.845 55.9653 170.479 56.4127 170.215 56.97C169.951 57.5127 169.819 58.0847 169.819 58.686V65H167.949V53.78ZM185.101 70.104C183.781 70.104 182.688 69.796 181.823 69.18C180.972 68.564 180.4 67.8233 180.107 66.958L181.801 66.232C182.05 66.8773 182.461 67.398 183.033 67.794C183.62 68.2047 184.309 68.41 185.101 68.41C186.26 68.41 187.154 68.0727 187.785 67.398C188.43 66.7233 188.753 65.77 188.753 64.538V63.284H188.665C188.298 63.856 187.778 64.3253 187.103 64.692C186.443 65.044 185.688 65.22 184.837 65.22C183.869 65.22 182.982 64.9707 182.175 64.472C181.383 63.9733 180.752 63.2767 180.283 62.382C179.814 61.4873 179.579 60.468 179.579 59.324C179.579 58.1947 179.814 57.1827 180.283 56.288C180.752 55.3787 181.383 54.6747 182.175 54.176C182.982 53.6773 183.869 53.428 184.837 53.428C185.688 53.428 186.443 53.6113 187.103 53.978C187.778 54.33 188.298 54.7993 188.665 55.386H188.753V53.78H190.535V64.56C190.535 66.364 190.036 67.7353 189.039 68.674C188.042 69.6273 186.729 70.104 185.101 70.104ZM185.101 63.526C185.776 63.526 186.384 63.3573 186.927 63.02C187.484 62.6827 187.924 62.1987 188.247 61.568C188.584 60.9373 188.753 60.1893 188.753 59.324C188.753 58.444 188.584 57.6887 188.247 57.058C187.924 56.4273 187.484 55.9507 186.927 55.628C186.384 55.2907 185.776 55.122 185.101 55.122C184.426 55.122 183.81 55.2907 183.253 55.628C182.696 55.9653 182.248 56.4493 181.911 57.08C181.588 57.7107 181.427 58.4587 181.427 59.324C181.427 60.1893 181.588 60.9447 181.911 61.59C182.248 62.2207 182.696 62.7047 183.253 63.042C183.81 63.3647 184.426 63.526 185.101 63.526ZM194.4 51.712C194.033 51.712 193.718 51.58 193.454 51.316C193.19 51.052 193.058 50.7367 193.058 50.37C193.058 50.0033 193.19 49.6953 193.454 49.446C193.718 49.182 194.033 49.05 194.4 49.05C194.767 49.05 195.082 49.182 195.346 49.446C195.61 49.6953 195.742 50.0033 195.742 50.37C195.742 50.7367 195.61 51.052 195.346 51.316C195.097 51.58 194.781 51.712 194.4 51.712ZM193.476 53.78H195.324V65H193.476V53.78ZM198.263 53.78H200.045V55.43H200.133C200.441 54.8727 200.932 54.4033 201.607 54.022C202.282 53.626 203 53.428 203.763 53.428C205.112 53.428 206.139 53.824 206.843 54.616C207.562 55.3933 207.921 56.4567 207.921 57.806V65H206.051V58.092C206.051 57.0507 205.802 56.2953 205.303 55.826C204.804 55.3567 204.122 55.122 203.257 55.122C202.656 55.122 202.113 55.2907 201.629 55.628C201.16 55.9653 200.793 56.4127 200.529 56.97C200.265 57.5127 200.133 58.0847 200.133 58.686V65H198.263V53.78ZM215.589 65.352C214.518 65.352 213.558 65.0953 212.707 64.582C211.856 64.0687 211.189 63.3647 210.705 62.47C210.236 61.5607 210.001 60.5413 210.001 59.412C210.001 58.3267 210.221 57.3293 210.661 56.42C211.116 55.5107 211.754 54.7847 212.575 54.242C213.396 53.6993 214.35 53.428 215.435 53.428C216.535 53.428 217.488 53.6773 218.295 54.176C219.102 54.66 219.718 55.3347 220.143 56.2C220.583 57.0653 220.803 58.0553 220.803 59.17C220.803 59.39 220.781 59.5807 220.737 59.742H211.871C211.915 60.5927 212.12 61.3113 212.487 61.898C212.854 62.4847 213.316 62.9247 213.873 63.218C214.445 63.5113 215.039 63.658 215.655 63.658C217.092 63.658 218.2 62.9833 218.977 61.634L220.561 62.404C220.077 63.3133 219.417 64.032 218.581 64.56C217.76 65.088 216.762 65.352 215.589 65.352ZM218.823 58.202C218.794 57.7327 218.662 57.2633 218.427 56.794C218.192 56.3247 217.818 55.9287 217.305 55.606C216.806 55.2833 216.176 55.122 215.413 55.122C214.533 55.122 213.785 55.408 213.169 55.98C212.568 56.5373 212.172 57.278 211.981 58.202H218.823ZM228.093 65.352C227.022 65.352 226.062 65.0953 225.211 64.582C224.36 64.0687 223.693 63.3647 223.209 62.47C222.74 61.5607 222.505 60.5413 222.505 59.412C222.505 58.3267 222.725 57.3293 223.165 56.42C223.62 55.5107 224.258 54.7847 225.079 54.242C225.9 53.6993 226.854 53.428 227.939 53.428C229.039 53.428 229.992 53.6773 230.799 54.176C231.606 54.66 232.222 55.3347 232.647 56.2C233.087 57.0653 233.307 58.0553 233.307 59.17C233.307 59.39 233.285 59.5807 233.241 59.742H224.375C224.419 60.5927 224.624 61.3113 224.991 61.898C225.358 62.4847 225.82 62.9247 226.377 63.218C226.949 63.5113 227.543 63.658 228.159 63.658C229.596 63.658 230.704 62.9833 231.481 61.634L233.065 62.404C232.581 63.3133 231.921 64.032 231.085 64.56C230.264 65.088 229.266 65.352 228.093 65.352ZM231.327 58.202C231.298 57.7327 231.166 57.2633 230.931 56.794C230.696 56.3247 230.322 55.9287 229.809 55.606C229.31 55.2833 228.68 55.122 227.917 55.122C227.037 55.122 226.289 55.408 225.673 55.98C225.072 56.5373 224.676 57.278 224.485 58.202H231.327ZM235.495 53.78H237.277V55.584H237.365C237.585 54.968 238.011 54.462 238.641 54.066C239.272 53.6553 239.932 53.45 240.621 53.45C241.135 53.45 241.575 53.5233 241.941 53.67V55.694C241.472 55.4593 240.944 55.342 240.357 55.342C239.815 55.342 239.316 55.496 238.861 55.804C238.407 56.112 238.04 56.53 237.761 57.058C237.497 57.5713 237.365 58.1287 237.365 58.73V65H235.495V53.78ZM244.845 51.712C244.479 51.712 244.163 51.58 243.899 51.316C243.635 51.052 243.503 50.7367 243.503 50.37C243.503 50.0033 243.635 49.6953 243.899 49.446C244.163 49.182 244.479 49.05 244.845 49.05C245.212 49.05 245.527 49.182 245.791 49.446C246.055 49.6953 246.187 50.0033 246.187 50.37C246.187 50.7367 246.055 51.052 245.791 51.316C245.542 51.58 245.227 51.712 244.845 51.712ZM243.921 53.78H245.769V65H243.921V53.78ZM248.708 53.78H250.49V55.43H250.578C250.886 54.8727 251.378 54.4033 252.052 54.022C252.727 53.626 253.446 53.428 254.208 53.428C255.558 53.428 256.584 53.824 257.288 54.616C258.007 55.3933 258.366 56.4567 258.366 57.806V65H256.496V58.092C256.496 57.0507 256.247 56.2953 255.748 55.826C255.25 55.3567 254.568 55.122 253.702 55.122C253.101 55.122 252.558 55.2907 252.074 55.628C251.605 55.9653 251.238 56.4127 250.974 56.97C250.71 57.5127 250.578 58.0847 250.578 58.686V65H248.708V53.78ZM265.861 70.104C264.541 70.104 263.448 69.796 262.583 69.18C261.732 68.564 261.16 67.8233 260.867 66.958L262.561 66.232C262.81 66.8773 263.221 67.398 263.793 67.794C264.38 68.2047 265.069 68.41 265.861 68.41C267.02 68.41 267.914 68.0727 268.545 67.398C269.19 66.7233 269.513 65.77 269.513 64.538V63.284H269.425C269.058 63.856 268.538 64.3253 267.863 64.692C267.203 65.044 266.448 65.22 265.597 65.22C264.629 65.22 263.742 64.9707 262.935 64.472C262.143 63.9733 261.512 63.2767 261.043 62.382C260.574 61.4873 260.339 60.468 260.339 59.324C260.339 58.1947 260.574 57.1827 261.043 56.288C261.512 55.3787 262.143 54.6747 262.935 54.176C263.742 53.6773 264.629 53.428 265.597 53.428C266.448 53.428 267.203 53.6113 267.863 53.978C268.538 54.33 269.058 54.7993 269.425 55.386H269.513V53.78H271.295V64.56C271.295 66.364 270.796 67.7353 269.799 68.674C268.802 69.6273 267.489 70.104 265.861 70.104ZM265.861 63.526C266.536 63.526 267.144 63.3573 267.687 63.02C268.244 62.6827 268.684 62.1987 269.007 61.568C269.344 60.9373 269.513 60.1893 269.513 59.324C269.513 58.444 269.344 57.6887 269.007 57.058C268.684 56.4273 268.244 55.9507 267.687 55.628C267.144 55.2907 266.536 55.122 265.861 55.122C265.186 55.122 264.57 55.2907 264.013 55.628C263.456 55.9653 263.008 56.4493 262.671 57.08C262.348 57.7107 262.187 58.4587 262.187 59.324C262.187 60.1893 262.348 60.9447 262.671 61.59C263.008 62.2207 263.456 62.7047 264.013 63.042C264.57 63.3647 265.186 63.526 265.861 63.526ZM286.509 65.352C284.984 65.352 283.598 64.9927 282.351 64.274C281.105 63.5553 280.122 62.5727 279.403 61.326C278.699 60.0647 278.347 58.664 278.347 57.124C278.347 55.584 278.699 54.1907 279.403 52.944C280.122 51.6827 281.105 50.6927 282.351 49.974C283.598 49.2553 284.984 48.896 286.509 48.896C287.683 48.896 288.753 49.1233 289.721 49.578C290.704 50.018 291.555 50.6487 292.273 51.47L290.931 52.768C290.33 52.0493 289.67 51.5213 288.951 51.184C288.247 50.8467 287.433 50.678 286.509 50.678C285.365 50.678 284.317 50.9493 283.363 51.492C282.41 52.02 281.647 52.7753 281.075 53.758C280.518 54.726 280.239 55.848 280.239 57.124C280.239 58.4 280.518 59.5293 281.075 60.512C281.647 61.48 282.41 62.2353 283.363 62.778C284.317 63.306 285.365 63.57 286.509 63.57C288.416 63.57 290.037 62.7853 291.371 61.216L292.735 62.536C292.002 63.4013 291.1 64.0907 290.029 64.604C288.959 65.1027 287.785 65.352 286.509 65.352ZM299.79 65.352C298.69 65.352 297.7 65.088 296.82 64.56C295.94 64.032 295.251 63.3133 294.752 62.404C294.268 61.4947 294.026 60.49 294.026 59.39C294.026 58.29 294.268 57.2853 294.752 56.376C295.251 55.4667 295.94 54.748 296.82 54.22C297.7 53.692 298.69 53.428 299.79 53.428C300.89 53.428 301.88 53.692 302.76 54.22C303.64 54.748 304.322 55.4667 304.806 56.376C305.305 57.2853 305.554 58.29 305.554 59.39C305.554 60.49 305.305 61.4947 304.806 62.404C304.322 63.3133 303.64 64.032 302.76 64.56C301.88 65.088 300.89 65.352 299.79 65.352ZM299.79 63.658C300.48 63.658 301.118 63.4893 301.704 63.152C302.306 62.8 302.782 62.3013 303.134 61.656C303.501 61.0107 303.684 60.2553 303.684 59.39C303.684 58.5247 303.501 57.7693 303.134 57.124C302.782 56.4787 302.306 55.9873 301.704 55.65C301.118 55.298 300.48 55.122 299.79 55.122C299.101 55.122 298.456 55.298 297.854 55.65C297.253 55.9873 296.769 56.4787 296.402 57.124C296.05 57.7693 295.874 58.5247 295.874 59.39C295.874 60.2553 296.05 61.0107 296.402 61.656C296.769 62.3013 297.253 62.8 297.854 63.152C298.456 63.4893 299.101 63.658 299.79 63.658ZM307.618 49.248H309.488V65H307.618V49.248ZM312.259 49.248H314.129V65H312.259V49.248ZM321.786 65.352C320.716 65.352 319.755 65.0953 318.904 64.582C318.054 64.0687 317.386 63.3647 316.902 62.47C316.433 61.5607 316.198 60.5413 316.198 59.412C316.198 58.3267 316.418 57.3293 316.858 56.42C317.313 55.5107 317.951 54.7847 318.772 54.242C319.594 53.6993 320.547 53.428 321.632 53.428C322.732 53.428 323.686 53.6773 324.492 54.176C325.299 54.66 325.915 55.3347 326.34 56.2C326.78 57.0653 327 58.0553 327 59.17C327 59.39 326.978 59.5807 326.934 59.742H318.068C318.112 60.5927 318.318 61.3113 318.684 61.898C319.051 62.4847 319.513 62.9247 320.07 63.218C320.642 63.5113 321.236 63.658 321.852 63.658C323.29 63.658 324.397 62.9833 325.174 61.634L326.758 62.404C326.274 63.3133 325.614 64.032 324.778 64.56C323.957 65.088 322.96 65.352 321.786 65.352ZM325.02 58.202C324.991 57.7327 324.859 57.2633 324.624 56.794C324.39 56.3247 324.016 55.9287 323.502 55.606C323.004 55.2833 322.373 55.122 321.61 55.122C320.73 55.122 319.982 55.408 319.366 55.98C318.765 56.5373 318.369 57.278 318.178 58.202H325.02ZM334.224 70.104C332.904 70.104 331.811 69.796 330.946 69.18C330.095 68.564 329.523 67.8233 329.23 66.958L330.924 66.232C331.173 66.8773 331.584 67.398 332.156 67.794C332.743 68.2047 333.432 68.41 334.224 68.41C335.383 68.41 336.277 68.0727 336.908 67.398C337.553 66.7233 337.876 65.77 337.876 64.538V63.284H337.788C337.421 63.856 336.901 64.3253 336.226 64.692C335.566 65.044 334.811 65.22 333.96 65.22C332.992 65.22 332.105 64.9707 331.298 64.472C330.506 63.9733 329.875 63.2767 329.406 62.382C328.937 61.4873 328.702 60.468 328.702 59.324C328.702 58.1947 328.937 57.1827 329.406 56.288C329.875 55.3787 330.506 54.6747 331.298 54.176C332.105 53.6773 332.992 53.428 333.96 53.428C334.811 53.428 335.566 53.6113 336.226 53.978C336.901 54.33 337.421 54.7993 337.788 55.386H337.876V53.78H339.658V64.56C339.658 66.364 339.159 67.7353 338.162 68.674C337.165 69.6273 335.852 70.104 334.224 70.104ZM334.224 63.526C334.899 63.526 335.507 63.3573 336.05 63.02C336.607 62.6827 337.047 62.1987 337.37 61.568C337.707 60.9373 337.876 60.1893 337.876 59.324C337.876 58.444 337.707 57.6887 337.37 57.058C337.047 56.4273 336.607 55.9507 336.05 55.628C335.507 55.2907 334.899 55.122 334.224 55.122C333.549 55.122 332.933 55.2907 332.376 55.628C331.819 55.9653 331.371 56.4493 331.034 57.08C330.711 57.7107 330.55 58.4587 330.55 59.324C330.55 60.1893 330.711 60.9447 331.034 61.59C331.371 62.2207 331.819 62.7047 332.376 63.042C332.933 63.3647 333.549 63.526 334.224 63.526ZM347.31 65.352C346.239 65.352 345.278 65.0953 344.428 64.582C343.577 64.0687 342.91 63.3647 342.426 62.47C341.956 61.5607 341.722 60.5413 341.722 59.412C341.722 58.3267 341.942 57.3293 342.382 56.42C342.836 55.5107 343.474 54.7847 344.296 54.242C345.117 53.6993 346.07 53.428 347.156 53.428C348.256 53.428 349.209 53.6773 350.016 54.176C350.822 54.66 351.438 55.3347 351.864 56.2C352.304 57.0653 352.524 58.0553 352.524 59.17C352.524 59.39 352.502 59.5807 352.458 59.742H343.592C343.636 60.5927 343.841 61.3113 344.208 61.898C344.574 62.4847 345.036 62.9247 345.594 63.218C346.166 63.5113 346.76 63.658 347.376 63.658C348.813 63.658 349.92 62.9833 350.698 61.634L352.282 62.404C351.798 63.3133 351.138 64.032 350.302 64.56C349.48 65.088 348.483 65.352 347.31 65.352ZM350.544 58.202C350.514 57.7327 350.382 57.2633 350.148 56.794C349.913 56.3247 349.539 55.9287 349.026 55.606C348.527 55.2833 347.896 55.122 347.134 55.122C346.254 55.122 345.506 55.408 344.89 55.98C344.288 56.5373 343.892 57.278 343.702 58.202H350.544Z" fill="#6B6B6B"/>
<path d="M91.48 29.48C89.46 29.48 87.6 28.99 85.9 28.01C84.2 27.03 82.85 25.68 81.85 23.96C80.85 22.24 80.35 20.34 80.35 18.26C80.35 16.18 80.85 14.28 81.85 12.56C82.85 10.84 84.2 9.48998 85.9 8.50998C87.6 7.52998 89.46 7.03998 91.48 7.03998C93.06 7.03998 94.54 7.31998 95.92 7.87998C97.32 8.43998 98.47 9.22998 99.37 10.25L97.54 12.08C96.86 11.24 95.99 10.6 94.93 10.16C93.87 9.69998 92.73 9.46998 91.51 9.46998C89.99 9.46998 88.57 9.83998 87.25 10.58C85.95 11.3 84.9 12.33 84.1 13.67C83.32 14.99 82.93 16.52 82.93 18.26C82.93 20 83.32 21.54 84.1 22.88C84.9 24.2 85.96 25.23 87.28 25.97C88.6 26.69 90.01 27.05 91.51 27.05C92.95 27.05 94.15 26.83 95.11 26.39C96.09 25.93 96.93 25.33 97.63 24.59C98.15 24.03 98.57 23.36 98.89 22.58C99.21 21.78 99.41 20.9 99.49 19.94H91.54V17.57H101.86C101.96 18.13 102.01 18.65 102.01 19.13C102.01 20.45 101.8 21.74 101.38 23C100.96 24.24 100.29 25.33 99.37 26.27C97.39 28.41 94.76 29.48 91.48 29.48ZM112.198 29.48C110.698 29.48 109.348 29.12 108.148 28.4C106.948 27.68 106.008 26.7 105.328 25.46C104.668 24.22 104.338 22.85 104.338 21.35C104.338 19.85 104.668 18.48 105.328 17.24C106.008 16 106.948 15.02 108.148 14.3C109.348 13.58 110.698 13.22 112.198 13.22C113.698 13.22 115.048 13.58 116.248 14.3C117.448 15.02 118.378 16 119.038 17.24C119.718 18.48 120.058 19.85 120.058 21.35C120.058 22.85 119.718 24.22 119.038 25.46C118.378 26.7 117.448 27.68 116.248 28.4C115.048 29.12 113.698 29.48 112.198 29.48ZM112.198 27.17C113.138 27.17 114.008 26.94 114.808 26.48C115.628 26 116.278 25.32 116.758 24.44C117.258 23.56 117.508 22.53 117.508 21.35C117.508 20.17 117.258 19.14 116.758 18.26C116.278 17.38 115.628 16.71 114.808 16.25C114.008 15.77 113.138 15.53 112.198 15.53C111.258 15.53 110.378 15.77 109.558 16.25C108.738 16.71 108.078 17.38 107.578 18.26C107.098 19.14 106.858 20.17 106.858 21.35C106.858 22.53 107.098 23.56 107.578 24.44C108.078 25.32 108.738 26 109.558 26.48C110.378 26.94 111.258 27.17 112.198 27.17ZM130.069 29.48C128.569 29.48 127.219 29.12 126.019 28.4C124.819 27.68 123.879 26.7 123.199 25.46C122.539 24.22 122.209 22.85 122.209 21.35C122.209 19.85 122.539 18.48 123.199 17.24C123.879 16 124.819 15.02 126.019 14.3C127.219 13.58 128.569 13.22 130.069 13.22C131.569 13.22 132.919 13.58 134.119 14.3C135.319 15.02 136.249 16 136.909 17.24C137.589 18.48 137.929 19.85 137.929 21.35C137.929 22.85 137.589 24.22 136.909 25.46C136.249 26.7 135.319 27.68 134.119 28.4C132.919 29.12 131.569 29.48 130.069 29.48ZM130.069 27.17C131.009 27.17 131.879 26.94 132.679 26.48C133.499 26 134.149 25.32 134.629 24.44C135.129 23.56 135.379 22.53 135.379 21.35C135.379 20.17 135.129 19.14 134.629 18.26C134.149 17.38 133.499 16.71 132.679 16.25C131.879 15.77 131.009 15.53 130.069 15.53C129.129 15.53 128.249 15.77 127.429 16.25C126.609 16.71 125.949 17.38 125.449 18.26C124.969 19.14 124.729 20.17 124.729 21.35C124.729 22.53 124.969 23.56 125.449 24.44C125.949 25.32 126.609 26 127.429 26.48C128.249 26.94 129.129 27.17 130.069 27.17ZM147.61 35.96C145.81 35.96 144.32 35.54 143.14 34.7C141.98 33.86 141.2 32.85 140.8 31.67L143.11 30.68C143.45 31.56 144.01 32.27 144.79 32.81C145.59 33.37 146.53 33.65 147.61 33.65C149.19 33.65 150.41 33.19 151.27 32.27C152.15 31.35 152.59 30.05 152.59 28.37V26.66H152.47C151.97 27.44 151.26 28.08 150.34 28.58C149.44 29.06 148.41 29.3 147.25 29.3C145.93 29.3 144.72 28.96 143.62 28.28C142.54 27.6 141.68 26.65 141.04 25.43C140.4 24.21 140.08 22.82 140.08 21.26C140.08 19.72 140.4 18.34 141.04 17.12C141.68 15.88 142.54 14.92 143.62 14.24C144.72 13.56 145.93 13.22 147.25 13.22C148.41 13.22 149.44 13.47 150.34 13.97C151.26 14.45 151.97 15.09 152.47 15.89H152.59V13.7H155.02V28.4C155.02 30.86 154.34 32.73 152.98 34.01C151.62 35.31 149.83 35.96 147.61 35.96ZM147.61 26.99C148.53 26.99 149.36 26.76 150.1 26.3C150.86 25.84 151.46 25.18 151.9 24.32C152.36 23.46 152.59 22.44 152.59 21.26C152.59 20.06 152.36 19.03 151.9 18.17C151.46 17.31 150.86 16.66 150.1 16.22C149.36 15.76 148.53 15.53 147.61 15.53C146.69 15.53 145.85 15.76 145.09 16.22C144.33 16.68 143.72 17.34 143.26 18.2C142.82 19.06 142.6 20.08 142.6 21.26C142.6 22.44 142.82 23.47 143.26 24.35C143.72 25.21 144.33 25.87 145.09 26.33C145.85 26.77 146.69 26.99 147.61 26.99ZM158.79 7.51998H161.34V29H158.79V7.51998ZM171.782 29.48C170.322 29.48 169.012 29.13 167.852 28.43C166.692 27.73 165.782 26.77 165.122 25.55C164.482 24.31 164.162 22.92 164.162 21.38C164.162 19.9 164.462 18.54 165.062 17.3C165.682 16.06 166.552 15.07 167.672 14.33C168.792 13.59 170.092 13.22 171.572 13.22C173.072 13.22 174.372 13.56 175.472 14.24C176.572 14.9 177.412 15.82 177.992 17C178.592 18.18 178.892 19.53 178.892 21.05C178.892 21.35 178.862 21.61 178.802 21.83H166.712C166.772 22.99 167.052 23.97 167.552 24.77C168.052 25.57 168.682 26.17 169.442 26.57C170.222 26.97 171.032 27.17 171.872 27.17C173.832 27.17 175.342 26.25 176.402 24.41L178.562 25.46C177.902 26.7 177.002 27.68 175.862 28.4C174.742 29.12 173.382 29.48 171.782 29.48ZM176.192 19.73C176.152 19.09 175.972 18.45 175.652 17.81C175.332 17.17 174.822 16.63 174.122 16.19C173.442 15.75 172.582 15.53 171.542 15.53C170.342 15.53 169.322 15.92 168.482 16.7C167.662 17.46 167.122 18.47 166.862 19.73H176.192ZM189.359 7.51998H195.839C198.039 7.51998 199.959 7.97998 201.599 8.89998C203.239 9.79998 204.499 11.06 205.379 12.68C206.259 14.3 206.699 16.16 206.699 18.26C206.699 20.36 206.259 22.22 205.379 23.84C204.499 25.46 203.239 26.73 201.599 27.65C199.959 28.55 198.039 29 195.839 29H189.359V7.51998ZM195.839 26.57C198.379 26.57 200.389 25.84 201.869 24.38C203.369 22.92 204.119 20.88 204.119 18.26C204.119 15.64 203.369 13.6 201.869 12.14C200.389 10.68 198.379 9.94998 195.839 9.94998H191.879V26.57H195.839ZM216.313 29.48C214.853 29.48 213.543 29.13 212.383 28.43C211.223 27.73 210.313 26.77 209.653 25.55C209.013 24.31 208.693 22.92 208.693 21.38C208.693 19.9 208.993 18.54 209.593 17.3C210.213 16.06 211.083 15.07 212.203 14.33C213.323 13.59 214.623 13.22 216.103 13.22C217.603 13.22 218.903 13.56 220.003 14.24C221.103 14.9 221.943 15.82 222.523 17C223.123 18.18 223.423 19.53 223.423 21.05C223.423 21.35 223.393 21.61 223.333 21.83H211.243C211.303 22.99 211.583 23.97 212.083 24.77C212.583 25.57 213.213 26.17 213.973 26.57C214.753 26.97 215.563 27.17 216.403 27.17C218.363 27.17 219.873 26.25 220.933 24.41L223.093 25.46C222.433 26.7 221.533 27.68 220.393 28.4C219.273 29.12 217.913 29.48 216.313 29.48ZM220.723 19.73C220.683 19.09 220.503 18.45 220.183 17.81C219.863 17.17 219.353 16.63 218.653 16.19C217.973 15.75 217.113 15.53 216.073 15.53C214.873 15.53 213.853 15.92 213.013 16.7C212.193 17.46 211.653 18.47 211.393 19.73H220.723ZM224.435 13.7H227.165L231.905 26H231.965L236.765 13.7H239.435L233.195 29H230.615L224.435 13.7ZM247.895 29.48C246.435 29.48 245.125 29.13 243.965 28.43C242.805 27.73 241.895 26.77 241.235 25.55C240.595 24.31 240.275 22.92 240.275 21.38C240.275 19.9 240.575 18.54 241.175 17.3C241.795 16.06 242.665 15.07 243.785 14.33C244.905 13.59 246.205 13.22 247.685 13.22C249.185 13.22 250.485 13.56 251.585 14.24C252.685 14.9 253.525 15.82 254.105 17C254.705 18.18 255.005 19.53 255.005 21.05C255.005 21.35 254.975 21.61 254.915 21.83H242.825C242.885 22.99 243.165 23.97 243.665 24.77C244.165 25.57 244.795 26.17 245.555 26.57C246.335 26.97 247.145 27.17 247.985 27.17C249.945 27.17 251.455 26.25 252.515 24.41L254.675 25.46C254.015 26.7 253.115 27.68 251.975 28.4C250.855 29.12 249.495 29.48 247.895 29.48ZM252.305 19.73C252.265 19.09 252.085 18.45 251.765 17.81C251.445 17.17 250.935 16.63 250.235 16.19C249.555 15.75 248.695 15.53 247.655 15.53C246.455 15.53 245.435 15.92 244.595 16.7C243.775 17.46 243.235 18.47 242.975 19.73H252.305ZM257.99 7.51998H260.54V29H257.99V7.51998ZM271.221 29.48C269.721 29.48 268.371 29.12 267.171 28.4C265.971 27.68 265.031 26.7 264.351 25.46C263.691 24.22 263.361 22.85 263.361 21.35C263.361 19.85 263.691 18.48 264.351 17.24C265.031 16 265.971 15.02 267.171 14.3C268.371 13.58 269.721 13.22 271.221 13.22C272.721 13.22 274.071 13.58 275.271 14.3C276.471 15.02 277.401 16 278.061 17.24C278.741 18.48 279.081 19.85 279.081 21.35C279.081 22.85 278.741 24.22 278.061 25.46C277.401 26.7 276.471 27.68 275.271 28.4C274.071 29.12 272.721 29.48 271.221 29.48ZM271.221 27.17C272.161 27.17 273.031 26.94 273.831 26.48C274.651 26 275.301 25.32 275.781 24.44C276.281 23.56 276.531 22.53 276.531 21.35C276.531 20.17 276.281 19.14 275.781 18.26C275.301 17.38 274.651 16.71 273.831 16.25C273.031 15.77 272.161 15.53 271.221 15.53C270.281 15.53 269.401 15.77 268.581 16.25C267.761 16.71 267.101 17.38 266.601 18.26C266.121 19.14 265.881 20.17 265.881 21.35C265.881 22.53 266.121 23.56 266.601 24.44C267.101 25.32 267.761 26 268.581 26.48C269.401 26.94 270.281 27.17 271.221 27.17ZM281.776 13.7H284.206V15.98H284.326C284.786 15.2 285.476 14.55 286.396 14.03C287.336 13.49 288.386 13.22 289.546 13.22C290.906 13.22 292.146 13.57 293.266 14.27C294.386 14.97 295.266 15.94 295.906 17.18C296.546 18.42 296.866 19.81 296.866 21.35C296.866 22.91 296.546 24.31 295.906 25.55C295.266 26.77 294.386 27.73 293.266 28.43C292.146 29.13 290.906 29.48 289.546 29.48C288.386 29.48 287.336 29.22 286.396 28.7C285.476 28.16 284.786 27.51 284.326 26.75H284.206L284.326 28.85V35.48H281.776V13.7ZM289.246 27.17C290.126 27.17 290.956 26.93 291.736 26.45C292.516 25.97 293.136 25.29 293.596 24.41C294.076 23.51 294.316 22.49 294.316 21.35C294.316 20.21 294.076 19.2 293.596 18.32C293.136 17.42 292.516 16.73 291.736 16.25C290.956 15.77 290.126 15.53 289.246 15.53C288.366 15.53 287.536 15.77 286.756 16.25C285.976 16.73 285.356 17.41 284.896 18.29C284.436 19.17 284.206 20.19 284.206 21.35C284.206 22.51 284.436 23.53 284.896 24.41C285.356 25.29 285.976 25.97 286.756 26.45C287.536 26.93 288.366 27.17 289.246 27.17ZM306.636 29.48C305.176 29.48 303.866 29.13 302.706 28.43C301.546 27.73 300.636 26.77 299.976 25.55C299.336 24.31 299.016 22.92 299.016 21.38C299.016 19.9 299.316 18.54 299.916 17.3C300.536 16.06 301.406 15.07 302.526 14.33C303.646 13.59 304.946 13.22 306.426 13.22C307.926 13.22 309.226 13.56 310.326 14.24C311.426 14.9 312.266 15.82 312.846 17C313.446 18.18 313.746 19.53 313.746 21.05C313.746 21.35 313.716 21.61 313.656 21.83H301.566C301.626 22.99 301.906 23.97 302.406 24.77C302.906 25.57 303.536 26.17 304.296 26.57C305.076 26.97 305.886 27.17 306.726 27.17C308.686 27.17 310.196 26.25 311.256 24.41L313.416 25.46C312.756 26.7 311.856 27.68 310.716 28.4C309.596 29.12 308.236 29.48 306.636 29.48ZM311.046 19.73C311.006 19.09 310.826 18.45 310.506 17.81C310.186 17.17 309.676 16.63 308.976 16.19C308.296 15.75 307.436 15.53 306.396 15.53C305.196 15.53 304.176 15.92 303.336 16.7C302.516 17.46 301.976 18.47 301.716 19.73H311.046ZM316.73 13.7H319.16V16.16H319.28C319.58 15.32 320.16 14.63 321.02 14.09C321.88 13.53 322.78 13.25 323.72 13.25C324.42 13.25 325.02 13.35 325.52 13.55V16.31C324.88 15.99 324.16 15.83 323.36 15.83C322.62 15.83 321.94 16.04 321.32 16.46C320.7 16.88 320.2 17.45 319.82 18.17C319.46 18.87 319.28 19.63 319.28 20.45V29H316.73V13.7ZM340.554 29.48C338.874 29.48 337.334 28.97 335.934 27.95C334.534 26.93 333.574 25.5 333.054 23.66L335.484 22.67C335.824 23.95 336.454 25 337.374 25.82C338.294 26.64 339.374 27.05 340.614 27.05C341.854 27.05 342.904 26.72 343.764 26.06C344.624 25.38 345.054 24.46 345.054 23.3C345.054 22.3 344.684 21.48 343.944 20.84C343.224 20.18 342.034 19.57 340.374 19.01L339.024 18.53C337.504 17.99 336.264 17.28 335.304 16.4C334.344 15.52 333.864 14.3 333.864 12.74C333.864 11.72 334.144 10.78 334.704 9.91998C335.264 9.03998 336.044 8.33998 337.044 7.81998C338.044 7.29998 339.164 7.03998 340.404 7.03998C341.644 7.03998 342.724 7.26998 343.644 7.72998C344.564 8.18998 345.294 8.74998 345.834 9.40998C346.394 10.07 346.784 10.72 347.004 11.36L344.604 12.38C344.404 11.64 343.944 10.97 343.224 10.37C342.524 9.76998 341.594 9.46998 340.434 9.46998C339.334 9.46998 338.394 9.77998 337.614 10.4C336.834 11.02 336.444 11.8 336.444 12.74C336.444 13.58 336.774 14.27 337.434 14.81C338.094 15.33 339.094 15.82 340.434 16.28L341.844 16.76C343.664 17.42 345.084 18.25 346.104 19.25C347.124 20.23 347.634 21.57 347.634 23.27C347.634 24.65 347.274 25.81 346.554 26.75C345.854 27.69 344.964 28.38 343.884 28.82C342.804 29.26 341.694 29.48 340.554 29.48ZM355.979 29.24C355.359 29.24 354.779 29.14 354.239 28.94C353.719 28.74 353.279 28.47 352.919 28.13C352.519 27.75 352.219 27.31 352.019 26.81C351.819 26.31 351.719 25.7 351.719 24.98V16.01H349.049V13.7H351.719V9.37998H354.269V13.7H357.989V16.01H354.269V24.35C354.269 25.19 354.429 25.81 354.749 26.21C355.129 26.65 355.679 26.87 356.399 26.87C356.979 26.87 357.539 26.7 358.079 26.36V28.85C357.779 28.99 357.469 29.09 357.149 29.15C356.849 29.21 356.459 29.24 355.979 29.24ZM366.635 29.48C364.795 29.48 363.385 28.94 362.405 27.86C361.445 26.78 360.965 25.27 360.965 23.33V13.7H363.515V22.94C363.515 24.4 363.845 25.47 364.505 26.15C365.165 26.83 366.055 27.17 367.175 27.17C368.035 27.17 368.795 26.94 369.455 26.48C370.135 26.02 370.655 25.42 371.015 24.68C371.395 23.94 371.585 23.16 371.585 22.34V13.7H374.135V29H371.705V26.78H371.585C371.165 27.54 370.495 28.18 369.575 28.7C368.655 29.22 367.675 29.48 366.635 29.48ZM384.235 29.48C382.875 29.48 381.635 29.13 380.515 28.43C379.415 27.73 378.545 26.77 377.905 25.55C377.265 24.31 376.945 22.91 376.945 21.35C376.945 19.81 377.265 18.42 377.905 17.18C378.545 15.94 379.415 14.97 380.515 14.27C381.635 13.57 382.875 13.22 384.235 13.22C385.415 13.22 386.465 13.49 387.385 14.03C388.305 14.55 389.005 15.2 389.485 15.98H389.605L389.485 13.85V7.51998H392.035V29H389.605V26.75H389.485C389.005 27.51 388.305 28.16 387.385 28.7C386.465 29.22 385.415 29.48 384.235 29.48ZM384.535 27.17C385.435 27.17 386.265 26.93 387.025 26.45C387.805 25.97 388.425 25.29 388.885 24.41C389.365 23.53 389.605 22.51 389.605 21.35C389.605 20.19 389.365 19.17 388.885 18.29C388.425 17.41 387.805 16.73 387.025 16.25C386.265 15.77 385.435 15.53 384.535 15.53C383.655 15.53 382.825 15.77 382.045 16.25C381.265 16.73 380.635 17.42 380.155 18.32C379.695 19.2 379.465 20.21 379.465 21.35C379.465 22.49 379.695 23.51 380.155 24.41C380.635 25.29 381.265 25.97 382.045 26.45C382.825 26.93 383.655 27.17 384.535 27.17ZM402.466 29.48C401.006 29.48 399.696 29.13 398.536 28.43C397.376 27.73 396.466 26.77 395.806 25.55C395.166 24.31 394.846 22.92 394.846 21.38C394.846 19.9 395.146 18.54 395.746 17.3C396.366 16.06 397.236 15.07 398.356 14.33C399.476 13.59 400.776 13.22 402.256 13.22C403.756 13.22 405.056 13.56 406.156 14.24C407.256 14.9 408.096 15.82 408.676 17C409.276 18.18 409.576 19.53 409.576 21.05C409.576 21.35 409.546 21.61 409.486 21.83H397.396C397.456 22.99 397.736 23.97 398.236 24.77C398.736 25.57 399.366 26.17 400.126 26.57C400.906 26.97 401.716 27.17 402.556 27.17C404.516 27.17 406.026 26.25 407.086 24.41L409.246 25.46C408.586 26.7 407.686 27.68 406.546 28.4C405.426 29.12 404.066 29.48 402.466 29.48ZM406.876 19.73C406.836 19.09 406.656 18.45 406.336 17.81C406.016 17.17 405.506 16.63 404.806 16.19C404.126 15.75 403.266 15.53 402.226 15.53C401.026 15.53 400.006 15.92 399.166 16.7C398.346 17.46 397.806 18.47 397.546 19.73H406.876ZM412.56 13.7H414.99V15.95H415.11C415.53 15.19 416.2 14.55 417.12 14.03C418.04 13.49 419.02 13.22 420.06 13.22C421.9 13.22 423.3 13.76 424.26 14.84C425.24 15.9 425.73 17.35 425.73 19.19V29H423.18V19.58C423.18 18.16 422.84 17.13 422.16 16.49C421.48 15.85 420.55 15.53 419.37 15.53C418.55 15.53 417.81 15.76 417.15 16.22C416.51 16.68 416.01 17.29 415.65 18.05C415.29 18.79 415.11 19.57 415.11 20.39V29H412.56V13.7ZM434.495 29.24C433.875 29.24 433.295 29.14 432.755 28.94C432.235 28.74 431.795 28.47 431.435 28.13C431.035 27.75 430.735 27.31 430.535 26.81C430.335 26.31 430.235 25.7 430.235 24.98V16.01H427.565V13.7H430.235V9.37998H432.785V13.7H436.505V16.01H432.785V24.35C432.785 25.19 432.945 25.81 433.265 26.21C433.645 26.65 434.195 26.87 434.915 26.87C435.495 26.87 436.055 26.7 436.595 26.36V28.85C436.295 28.99 435.985 29.09 435.665 29.15C435.365 29.21 434.975 29.24 434.495 29.24ZM456.578 29.48C454.498 29.48 452.608 28.99 450.908 28.01C449.208 27.03 447.868 25.69 446.888 23.99C445.928 22.27 445.448 20.36 445.448 18.26C445.448 16.16 445.928 14.26 446.888 12.56C447.868 10.84 449.208 9.48998 450.908 8.50998C452.608 7.52998 454.498 7.03998 456.578 7.03998C458.178 7.03998 459.638 7.34998 460.958 7.96998C462.298 8.56998 463.458 9.42998 464.438 10.55L462.608 12.32C461.788 11.34 460.888 10.62 459.908 10.16C458.948 9.69998 457.838 9.46998 456.578 9.46998C455.018 9.46998 453.588 9.83998 452.288 10.58C450.988 11.3 449.948 12.33 449.168 13.67C448.408 14.99 448.028 16.52 448.028 18.26C448.028 20 448.408 21.54 449.168 22.88C449.948 24.2 450.988 25.23 452.288 25.97C453.588 26.69 455.018 27.05 456.578 27.05C459.178 27.05 461.388 25.98 463.208 23.84L465.068 25.64C464.068 26.82 462.838 27.76 461.378 28.46C459.918 29.14 458.318 29.48 456.578 29.48ZM467.931 7.51998H470.481V29H467.931V7.51998ZM479.809 29.48C477.969 29.48 476.559 28.94 475.579 27.86C474.619 26.78 474.139 25.27 474.139 23.33V13.7H476.689V22.94C476.689 24.4 477.019 25.47 477.679 26.15C478.339 26.83 479.229 27.17 480.349 27.17C481.209 27.17 481.969 26.94 482.629 26.48C483.309 26.02 483.829 25.42 484.189 24.68C484.569 23.94 484.759 23.16 484.759 22.34V13.7H487.309V29H484.879V26.78H484.759C484.339 27.54 483.669 28.18 482.749 28.7C481.829 29.22 480.849 29.48 479.809 29.48ZM498.846 29.48C497.686 29.48 496.636 29.22 495.696 28.7C494.776 28.16 494.086 27.51 493.626 26.75H493.506V29H491.076V7.51998H493.626V13.85L493.506 15.98H493.626C494.086 15.2 494.776 14.55 495.696 14.03C496.636 13.49 497.686 13.22 498.846 13.22C500.206 13.22 501.446 13.57 502.566 14.27C503.686 14.97 504.566 15.94 505.206 17.18C505.846 18.42 506.166 19.81 506.166 21.35C506.166 22.91 505.846 24.31 505.206 25.55C504.566 26.77 503.686 27.73 502.566 28.43C501.446 29.13 500.206 29.48 498.846 29.48ZM498.546 27.17C499.426 27.17 500.256 26.93 501.036 26.45C501.816 25.97 502.436 25.29 502.896 24.41C503.376 23.51 503.616 22.49 503.616 21.35C503.616 20.21 503.376 19.2 502.896 18.32C502.436 17.42 501.816 16.73 501.036 16.25C500.256 15.77 499.426 15.53 498.546 15.53C497.666 15.53 496.836 15.77 496.056 16.25C495.276 16.73 494.656 17.41 494.196 18.29C493.736 19.17 493.506 20.19 493.506 21.35C493.506 22.51 493.736 23.53 494.196 24.41C494.656 25.29 495.276 25.97 496.056 26.45C496.836 26.93 497.666 27.17 498.546 27.17ZM514.316 29.48C512.676 29.48 511.306 29.1 510.206 28.34C509.106 27.56 508.326 26.57 507.866 25.37L510.146 24.35C510.526 25.27 511.086 25.98 511.826 26.48C512.586 26.98 513.416 27.23 514.316 27.23C515.276 27.23 516.096 27.04 516.776 26.66C517.456 26.26 517.796 25.7 517.796 24.98C517.796 24.34 517.526 23.83 516.986 23.45C516.446 23.05 515.596 22.71 514.436 22.43L512.576 21.95C511.356 21.65 510.356 21.14 509.576 20.42C508.796 19.7 508.406 18.77 508.406 17.63C508.406 16.75 508.666 15.98 509.186 15.32C509.726 14.64 510.436 14.12 511.316 13.76C512.196 13.4 513.146 13.22 514.166 13.22C515.506 13.22 516.696 13.51 517.736 14.09C518.796 14.67 519.546 15.48 519.986 16.52L517.766 17.54C517.086 16.18 515.876 15.5 514.136 15.5C513.296 15.5 512.556 15.7 511.916 16.1C511.296 16.48 510.986 16.97 510.986 17.57C510.986 18.13 511.206 18.59 511.646 18.95C512.086 19.29 512.746 19.57 513.626 19.79L515.846 20.36C517.346 20.74 518.476 21.31 519.236 22.07C519.996 22.81 520.376 23.72 520.376 24.8C520.376 25.74 520.106 26.57 519.566 27.29C519.026 27.99 518.296 28.53 517.376 28.91C516.456 29.29 515.436 29.48 514.316 29.48Z" fill="#6B6B6B"/>
</svg>
